<svg width="88" height="60" fill="none" xmlns="http://www.w3.org/2000/svg"><path d="M46.25 37.921c8.682 0 15.721-7.093 15.721-15.842 0-8.75-7.038-15.842-15.721-15.842S30.528 13.33 30.528 22.079c0 8.75 7.04 15.842 15.722 15.842Z" fill="gold"/><path d="M12.155 36.517c-6.671-6.723-6.671-17.622 0-24.345a16.992 16.992 0 0 1 24.16 0l23.19 23.369-24.159 24.344-23.19-23.368Z" fill="#4169E1"/><path d="M12.768 37.122c-3.113-3.137-3.113-8.223 0-11.36a7.928 7.928 0 0 1 11.273 0l15.432 15.55L28.2 52.673l-15.432-15.55ZM71.46 11.845a3.486 3.486 0 0 1 0-4.903 3.422 3.422 0 0 1 4.866 0l6.66 6.712-4.865 4.902-6.66-6.711Z" fill="gold"/><path d="M79.899 6.986a3.422 3.422 0 0 1 4.865 0 3.485 3.485 0 0 1 0 4.903l-6.66 6.712-4.866-4.903 6.66-6.712ZM22.73 47.171l28.544-28.763a13.507 13.507 0 0 1 19.204 0 4.378 4.378 0 0 1 0 6.157l-35.091 35.36L22.73 47.172Z" fill="#4169E1"/><path d="M60.671 22.204c.992 0 1.795-.81 1.795-1.809 0-.999-.803-1.809-1.795-1.809-.99 0-1.794.81-1.794 1.809 0 .999.803 1.809 1.794 1.809Z" fill="gold"/><path d="M75.37 22.498c-.692-.106-2.257-1.666-5.105-4.224-1.388 4.935-3.776 9.55-.99 7.485 3.28-2.433 4.834-3.024 6.095-3.26Z" fill="#4169E1"/></svg>