<svg width="92" height="82" fill="none" xmlns="http://www.w3.org/2000/svg"><path d="m90.491 30.086.057.019a1.818 1.818 0 0 1 1.202 1.702v12.396c0 .779-.506 1.473-1.258 1.72l-4.843 1.596-.171.056V66.93a5.915 5.915 0 0 1-2.576 4.869 6.075 6.075 0 0 1-5.521.695 5.963 5.963 0 0 1-3.731-4.076l-.162.043.097-.156h-.001l-.65-.644.114.436-40.94-13.87-.04-.012h-1.685l.1.323 4.212 13.614a6.634 6.634 0 0 0 1.8 3.341l.001.001a5.616 5.616 0 0 1 1.675 3.996 5.616 5.616 0 0 1-1.675 3.995 5.762 5.762 0 0 1-4.047 1.657H26.09a5.746 5.746 0 0 1-3.569-1.225 5.624 5.624 0 0 1-1.929-2.851h.012l-.094-.321-6.656-22.51-.046-.155-.16-.021c-5.234-.696-9.744-3.98-11.965-8.712l-.226.107.226-.107A15.113 15.113 0 0 1 2.682 30.7c2.843-4.394 7.758-7.052 13.038-7.048h16.273l.047-.02L73.466 5.81l.114-.048.03-.12a5.973 5.973 0 0 1 3.697-4.12 6.085 6.085 0 0 1 5.54.642 5.927 5.927 0 0 1 2.63 4.852v21.418l.172.056 4.842 1.595ZM33.763 50.864l.045.099.102.034 39.192 13.277.33.112V9.787l-.349.15-39.218 16.87-.09.038-.04.088a28.86 28.86 0 0 0 .028 23.931ZM3.936 38.931a11.581 11.581 0 0 0 3.297 8.063 11.851 11.851 0 0 0 8.024 3.562h.041l14.048.025h.36l-.126-.338a32.967 32.967 0 0 1-.164-22.626l.12-.334H15.72a11.87 11.87 0 0 0-8.329 3.414 11.59 11.59 0 0 0-3.456 8.234Zm27.2 30.143-.002-.01-.003-.01-4.544-14.665-.054-.176h-8.849l.095.321 6.294 21.296a2.072 2.072 0 0 0 2.016 1.68h6.361c.824 0 1.57-.49 1.886-1.247a2.005 2.005 0 0 0-.444-2.204 10.018 10.018 0 0 1-2.756-4.985Zm56.76-26.124.172-.056v-.181l.001-9.417v-.18l-.172-.057-2.09-.688-.329-.108v11.484l.327-.108 2.091-.689Zm-8.44 26.296c1.29 0 2.34-1.035 2.34-2.317V7.016c0-1.282-1.05-2.316-2.34-2.316-1.29 0-2.341 1.034-2.341 2.316v59.913c0 1.282 1.05 2.317 2.34 2.317Z" fill="#4169E1" stroke="#fff" stroke-width=".5"/></svg>